Coordinates
version=1
nRows=8
nColumns=40
inDegrees=yes

Units are S.I. units (second, meters, Newtons, ...)
If the header above contains a line with 'inDegrees', this indicates whether rotational values are in degrees (yes) or radians (no).

endheader
time	pelvis_tilt	pelvis_list	pelvis_rotation	pelvis_tx	pelvis_ty	pelvis_tz	hip_flexion_r	hip_adduction_r	hip_rotation_r	knee_angle_r	knee_angle_r_beta	ankle_angle_r	subtalar_angle_r	mtp_angle_r	hip_flexion_l	hip_adduction_l	hip_rotation_l	knee_angle_l	knee_angle_l_beta	ankle_angle_l	subtalar_angle_l	mtp_angle_l	lumbar_extension	lumbar_bending	lumbar_rotation	arm_flex_r	arm_add_r	arm_rot_r	elbow_flex_r	pro_sup_r	wrist_flex_r	wrist_dev_r	arm_flex_l	arm_add_l	arm_rot_l	elbow_flex_l	pro_sup_l	wrist_flex_l	wrist_dev_l
      9.25000000	     14.24937431	     -1.21248703	    179.26682642	      0.25480933	      0.79065079	     -0.91744029	     49.95763514	    -35.07651495	    -20.11329830	     42.69513924	      0.74517075	     -2.66778586	      0.00000000	      0.00000000	     48.78239367	    -34.70694175	    -20.45723669	     45.22392079	      0.78930632	     -1.56420242	      0.00000000	      0.00000000	    -81.02474756	      3.89636538	      2.37242302	     73.75666481	      1.29946036	      4.11570385	      3.50847328	      8.80136681	      0.00000000	      0.00000000	     75.66362870	     -6.94305549	     60.03393449	      8.36554259	     88.01869248	      0.00000000	      0.00000000
      9.25500000	     14.08718576	     -1.26489427	    179.28749788	      0.25509306	      0.79052745	     -0.91752161	     49.86555178	    -35.16188094	    -20.08121521	     42.74116704	      0.74597409	     -2.63982289	      0.00000000	      0.00000000	     48.67955010	    -34.69024127	    -20.45454358	     45.33059175	      0.79116808	     -1.59977712	      0.00000000	      0.00000000	    -80.97533362	      3.84221317	      2.37930398	     73.42929717	      1.19105394	      4.00642811	      3.46748909	      8.80264316	      0.00000000	      0.00000000	     75.45783660	     -6.87088939	     59.97891330	      8.44087159	     88.02175369	      0.00000000	      0.00000000
      9.26000000	     13.99750406	     -1.20838376	    179.16565179	      0.25553444	      0.79052322	     -0.91781562	     49.86340980	    -34.98252838	    -19.91892459	     42.76899329	      0.74645975	     -2.65408004	      0.00000000	      0.00000000	     48.58161532	    -34.86445129	    -20.55341669	     45.32916930	      0.79114325	     -1.59120264	      0.00000000	      0.00000000	    -80.91285677	      3.70963331	      2.42970611	     73.34888606	      1.18337013	      3.98259005	      3.45672441	      8.80268587	      0.00000000	      0.00000000	     75.31815477	     -6.88705863	     59.96886347	      8.43248239	     88.02561644	      0.00000000	      0.00000000
      9.26500000	     13.78389589	     -1.29652253	    179.35813793	      0.25568951	      0.79038354	     -0.91757957	     49.69342103	    -35.32099718	    -20.10648621	     42.95872233	      0.74977115	     -2.54571407	      0.00000000	      0.00000000	     48.50616433	    -34.68268621	    -20.47123916	     45.48768090	      0.79390980	     -1.65498493	      0.00000000	      0.00000000	    -80.90977821	      3.82481601	      2.37621184	     72.96856082	      1.02877772	      3.81629067	      3.56438537	      8.84140204	      0.00000000	      0.00000000	     75.10704540	     -6.85214626	     59.85774018	      8.55254127	     88.02468401	      0.00000000	      0.00000000
      9.27000000	     13.67402862	     -1.23673668	    179.23547810	      0.25613207	      0.79033756	     -0.91789260	     49.68066354	    -35.13397469	    -19.93831587	     42.98960162	      0.75031009	     -2.55554314	      0.00000000	      0.00000000	     48.40294951	    -34.87055477	    -20.56777507	     45.48217605	      0.79381372	     -1.64501269	      0.00000000	      0.00000000	    -80.85731910	      3.70830384	      2.44865681	     72.84542515	      1.05754084	      3.78031863	      3.55507925	      8.84403654	      0.00000000	      0.00000000	     74.92990489	     -6.85668209	     59.84470947	      8.55200946	     88.02995447	      0.00000000	      0.00000000
      9.27500000	     13.47500201	     -1.26535416	    179.36028134	      0.25630511	      0.79021888	     -0.91782679	     49.51280893	    -35.36484163	    -20.15436192	     43.17882534	      0.75361267	     -2.47640552	      0.00000000	      0.00000000	     48.32072837	    -34.79231367	    -20.47581195	     45.60603002	      0.79597538	     -1.69055035	      0.00000000	      0.00000000	    -80.85505715	      3.76564027	      2.43392631	     72.50024505	      0.96191670	      3.59223935	      3.65556515	      8.88664287	      0.00000000	      0.00000000	     74.73081645	     -6.83423660	     59.73834713	      8.65141044	     88.02945746	      0.00000000	      0.00000000
      9.28000000	     13.36496780	     -1.20928413	    179.25561232	      0.25674071	      0.79018445	     -0.91805141	     49.49005756	    -35.20325960	    -19.98797848	     43.20273374	      0.75402995	     -2.48315405	      0.00000000	      0.00000000	     48.22253120	    -34.95323589	    -20.56672353	     45.61127223	      0.79606688	     -1.68134091	      0.00000000	      0.00000000	    -80.80757708	      3.66647913	      2.50872515	     72.37877031	      0.96727250	      3.54580080	      3.65234131	      8.89199198	      0.00000000	      0.00000000	     74.56582414	     -6.83311111	     59.71719450	      8.66305736	     88.03373691	      0.00000000	      0.00000000
      9.28500000	     13.10593923	     -1.17462107	    179.42350967	      0.25677894	      0.79021222	     -0.91787843	     49.19459607	    -35.46206459	    -20.40185742	     43.45847925	      0.75849355	     -2.36308636	      0.00000000	      0.00000000	     48.12001545	    -34.88818149	    -20.38382181	     45.72068237	      0.79797644	     -1.67747443	      0.00000000	      0.00000000	    -80.89319949	      3.80458763	      2.51801946	     72.07063648	      0.90521638	      3.18101002	      3.95411517	      9.01876482	      0.00000000	      0.00000000	     74.34830298	     -6.88017552	     59.46306742	      8.83639417	     88.02435048	      0.00000000	      0.00000000
